<?xml version="1.0" encoding="UTF-8"?>
<svg width="27px" height="15px" viewBox="0 0 27 15" version="1.1" xmlns="http://www.w3.org/2000/svg" xmlns:xlink="http://www.w3.org/1999/xlink">
    <!-- Generator: Sketch 52.3 (67297) - http://www.bohemiancoding.com/sketch -->
    <title>CarouselThreeNext</title>
    <desc>Created with Sketch.</desc>
    <g id="HomePage" stroke="none" stroke-width="1" fill="none" fill-rule="evenodd">
        <g id="Mobile" transform="translate(-278.000000, -626.000000)" fill="#109648">
            <g id="Section-3-:-News" transform="translate(0.000000, 588.000000)">
                <g id="Group-4" transform="translate(11.000000, 31.000000)">
                    <g id="arrow" transform="translate(223.000000, 6.000000)">
                        <path d="M70.3012001,7.94886234 L64.2685589,1.78283432 C63.9005121,1.4067286 63.3035671,1.4067286 62.935491,1.78283432 C62.5673856,2.1591299 62.5673856,2.76937395 62.935491,3.14527254 L67.3590218,7.66677442 L45.2411918,7.66677442 C44.7206145,7.66677442 44.2985715,8.09832078 44.2985715,8.63018501 C44.2985715,9.16244624 44.7206145,9.59357835 45.2411918,9.59357835 L67.3590218,9.59357835 L62.9356667,14.1148904 C62.5675027,14.4913931 62.5675027,15.101033 62.9356667,15.4775357 C63.119734,15.6653814 63.3609307,15.7596064 63.6022153,15.7596064 C63.843412,15.7596064 64.084638,15.6653814 64.268676,15.4775357 L70.3012001,9.31150769 C70.6693641,8.93500498 70.6693641,8.32515792 70.3012001,7.94886234 Z" id="CarouselThreeNext"></path>
                    </g>
                </g>
            </g>
        </g>
    </g>
</svg>