<?xml version="1.0" encoding="UTF-8"?>
<svg width="91px" height="100px" viewBox="0 0 91 100" version="1.1" xmlns="http://www.w3.org/2000/svg" xmlns:xlink="http://www.w3.org/1999/xlink">
    <!-- Generator: Sketch 53.2 (72643) - https://sketchapp.com -->
    <title>documentsIcon</title>
    <desc>Created with Sketch.</desc>
    <g id="Symbols" stroke="none" stroke-width="1" fill="none" fill-rule="evenodd">
        <g id="Icons/Documents-Outline" transform="translate(-5.000000, 0.000000)" fill="#880D1E" fill-rule="nonzero">
            <g id="documentsIcon" transform="translate(5.000000, 0.000000)">
                <path d="M3.22580645,9.67741935 L51.6129032,9.67741935 L51.6129032,20.9677419 C51.6129032,21.8600365 52.3335119,22.5806452 53.2258065,22.5806452 L64.516129,22.5806452 L64.516129,35.483871 L67.7419355,35.483871 L67.7419355,20.9677419 C67.7419355,20.5212008 67.5600113,20.117975 67.2678302,19.825794 L54.3693296,6.92729335 C54.0755734,6.6335371 53.6723476,6.4516129 53.2258065,6.4516129 L9.67741935,6.4516129 L9.67741935,3.22580645 L70.9677419,3.22580645 L70.9677419,38.7096774 L74.1935484,38.7096774 L74.1935484,1.61290323 C74.1935484,0.720608669 73.4729397,0 72.5806452,0 L8.06451613,0 C7.17222157,0 6.4516129,0.720608669 6.4516129,1.61290323 L6.4516129,6.4516129 L1.61290323,6.4516129 C0.720608669,6.4516129 0,7.17222157 0,8.06451613 L0,98.3870968 C0,99.2793913 0.720608669,100 1.61290323,100 L56.4516129,100 L56.4516129,96.7741935 L3.22580645,96.7741935 L3.22580645,9.67741935 Z M54.8387097,11.9581653 L62.2353831,19.3548387 L54.8387097,19.3548387 L54.8387097,11.9581653 Z" id="Shape"></path>
                <path d="M88.7096774,48.3870968 L86.280872,48.3870968 C79.0787236,48.3870968 72.3050024,45.2148438 67.69547,39.6838772 L67.3694242,39.2916772 C66.7582851,38.55453 65.5013546,38.55453 64.8902155,39.2916772 L64.5641696,39.6823022 C59.9530621,45.2148438 53.1793409,48.3870968 45.9771925,48.3870968 L43.5483871,48.3870968 C42.6560925,48.3870968 41.9354839,49.1077054 41.9354839,50 L41.9354839,76.1222593 C41.9354839,82.4738532 45.3613282,88.377331 50.875756,91.5275327 L65.328881,99.7873613 C65.5761718,99.9291206 65.8533895,100 66.1290323,100 C66.404675,100 66.6818927,99.9291206 66.9291835,99.7873613 L81.3823085,91.5275327 C86.8967363,88.377331 90.3225806,82.4738532 90.3225806,76.1222593 L90.3225806,50 C90.3225806,49.1077054 89.601972,48.3870968 88.7096774,48.3870968 Z M87.0967742,76.1222593 C87.0967742,81.3193044 84.2954575,86.1485635 79.782006,88.7254284 L66.1290323,96.5308405 L52.4760585,88.7277911 C47.9626071,86.1485635 45.1612903,81.3193044 45.1612903,76.1222593 L45.1612903,51.6129032 L45.9771925,51.6129032 C53.6739226,51.6129032 60.9422254,48.4146611 66.1290323,42.788401 C71.3142641,48.4146611 78.5841419,51.6129032 86.280872,51.6129032 L87.0967742,51.6129032 L87.0967742,76.1222593 Z" id="Shape"></path>
                <path d="M66.1290323,53.2258065 C56.3468687,53.2258065 48.3870968,61.1855784 48.3870968,70.9677419 C48.3870968,80.7499054 56.3468687,88.7096774 66.1290323,88.7096774 C75.9111958,88.7096774 83.8709677,80.7499054 83.8709677,70.9677419 C83.8709677,61.1855784 75.9111958,53.2258065 66.1290323,53.2258065 Z M66.1290323,85.483871 C58.12437,85.483871 51.6129032,78.9724042 51.6129032,70.9677419 C51.6129032,62.9630796 58.12437,56.4516129 66.1290323,56.4516129 C74.1336946,56.4516129 80.6451613,62.9630796 80.6451613,70.9677419 C80.6451613,78.9724042 74.1336946,85.483871 66.1290323,85.483871 Z" id="Shape"></path>
                <path d="M65.3595956,75.9820754 L62.4306956,73.0531754 L60.1499496,75.3339214 L64.9886593,80.172631 C65.2934413,80.4789881 65.7061177,80.6451613 66.1290323,80.6451613 C66.2597657,80.6451613 66.3920742,80.6294103 66.5228075,80.5971208 C67.0740927,80.4577242 67.5096081,80.0387476 67.674206,79.4953377 L72.5129157,63.3663054 L69.4225681,62.4401462 L65.3595956,75.9820754 Z" id="Path"></path>
                <polygon id="Path" points="6.4516129 25.8064516 48.3870968 25.8064516 48.3870968 29.0322581 6.4516129 29.0322581"></polygon>
                <polygon id="Path" points="6.4516129 32.2580645 48.3870968 32.2580645 48.3870968 35.483871 6.4516129 35.483871"></polygon>
                <polygon id="Path" points="6.4516129 38.7096774 48.3870968 38.7096774 48.3870968 41.9354839 6.4516129 41.9354839"></polygon>
                <polygon id="Path" points="6.4516129 45.1612903 38.7096774 45.1612903 38.7096774 48.3870968 6.4516129 48.3870968"></polygon>
                <polygon id="Path" points="6.4516129 51.6129032 38.7096774 51.6129032 38.7096774 54.8387097 6.4516129 54.8387097"></polygon>
                <polygon id="Path" points="6.4516129 58.0645161 38.7096774 58.0645161 38.7096774 61.2903226 6.4516129 61.2903226"></polygon>
                <polygon id="Path" points="6.4516129 77.4193548 38.7096774 77.4193548 38.7096774 80.6451613 6.4516129 80.6451613"></polygon>
                <polygon id="Path" points="6.4516129 83.8709677 38.7096774 83.8709677 38.7096774 87.0967742 6.4516129 87.0967742"></polygon>
                <polygon id="Path" points="6.4516129 90.3225806 38.7096774 90.3225806 38.7096774 93.5483871 6.4516129 93.5483871"></polygon>
                <polygon id="Path" points="8.06451613 12.9032258 11.2903226 12.9032258 11.2903226 16.1290323 8.06451613 16.1290323"></polygon>
                <polygon id="Path" points="14.516129 12.9032258 17.7419355 12.9032258 17.7419355 16.1290323 14.516129 16.1290323"></polygon>
                <polygon id="Path" points="20.9677419 12.9032258 24.1935484 12.9032258 24.1935484 16.1290323 20.9677419 16.1290323"></polygon>
                <polygon id="Path" points="27.4193548 12.9032258 48.3870968 12.9032258 48.3870968 16.1290323 27.4193548 16.1290323"></polygon>
            </g>
        </g>
    </g>
</svg>