<?xml version="1.0" encoding="UTF-8"?>
<svg width="65px" height="66px" viewBox="0 0 65 66" version="1.1" xmlns="http://www.w3.org/2000/svg" xmlns:xlink="http://www.w3.org/1999/xlink">
    <!-- Generator: Sketch 52.3 (67297) - http://www.bohemiancoding.com/sketch -->
    <title>FacilitiesThree</title>
    <desc>Created with Sketch.</desc>
    <g id="HomePage" stroke="none" stroke-width="1" fill="none" fill-rule="evenodd">
        <g id="Mobile" transform="translate(-122.000000, -3187.000000)">
            <g id="Section-5-:-Facilities" transform="translate(0.000000, 2751.000000)">
                <g id="Content">
                    <g id="#3" transform="translate(90.000000, 436.000000)">
                        <g id="FacilitiesThree" transform="translate(30.000000, 0.000000)">
                            <path d="M34.4761905,0.751042603 C52.2807732,0.751042603 66.7143007,15.2085292 66.7143007,33.0429337 C66.7143007,50.8768704 52.2807732,65.3348917 34.4761905,65.3348917 C16.6715403,65.3348917 2.23808024,50.8768704 2.23808024,33.0429337 C2.23808024,15.2085292 16.6715403,0.751042603 34.4761905,0.751042603 Z" id="elipse" fill="#F1F1F1"></path>
                            <path d="M49.8570644,27.947166 C50.0992662,28.0632904 50.220384,28.4126339 50.220384,28.7625136 C50.220384,29.1108358 50.0992662,29.344106 49.8570644,29.57684 L48.1615168,31.2064884 C47.6770795,31.6714202 46.950474,31.6714202 46.4659692,31.2064884 C43.4382947,28.296535 39.1994763,26.4341526 34.4762205,26.4341526 C29.7529309,26.4341526 25.5141125,28.296535 22.486438,31.2064884 C22.0019332,31.6714202 21.275294,31.6714202 20.7908904,31.2064884 L19.0953428,29.57684 C18.8531409,29.344106 18.7319557,29.1108358 18.7319557,28.7625136 C18.7319557,28.4126339 18.8531409,28.1804362 19.0953428,27.947166 C22.9708416,24.1057661 28.4207029,21.7779157 34.4762205,21.7779157 C40.5317043,21.7779157 45.8604478,24.1057661 49.8570644,27.947166 Z M34.4762205,31.0893427 C37.8672482,31.0893427 40.7739061,32.3706689 42.9537899,34.4657853 C43.4382947,34.9312532 43.4382947,35.6294551 42.9537899,36.0954337 L41.2582423,37.7240609 C40.7739061,38.1900395 40.0471995,38.1900395 39.5627959,37.7240609 C38.2305678,36.5609017 36.4139024,35.7460902 34.4762205,35.7460902 C32.538471,35.7460902 30.7218394,36.4448028 29.3896113,37.7240609 C28.9052077,38.1900395 28.1785011,38.1900395 27.6940637,37.7240609 L25.9985498,36.0949231 C25.5141125,35.6294551 25.5141125,34.9312532 25.9985498,34.4657853 C28.1785011,32.3706689 31.085159,31.0893427 34.4762205,31.0893427 Z M34.4762205,40.4023016 C35.813914,40.4023016 36.8984073,41.4441787 36.8984073,42.7296413 C36.8984073,44.0156401 35.813914,45.0580278 34.4762205,45.0580278 C33.1384595,45.0580278 32.0539999,44.0156401 32.0539999,42.7296413 C32.0539999,41.4441787 33.1384595,40.4023016 34.4762205,40.4023016 Z" id="Combined-shape-5678" fill="#109648"></path>
                        </g>
                    </g>
                </g>
            </g>
        </g>
    </g>
</svg>