<?xml version="1.0" encoding="UTF-8"?>
<svg width="100px" height="100px" viewBox="0 0 100 100" version="1.1" xmlns="http://www.w3.org/2000/svg" xmlns:xlink="http://www.w3.org/1999/xlink">
    <!-- Generator: Sketch 53.2 (72643) - https://sketchapp.com -->
    <title>financeIcon</title>
    <desc>Created with Sketch.</desc>
    <g id="Symbols" stroke="none" stroke-width="1" fill="none" fill-rule="evenodd">
        <g id="Icons/Finance-Outline" fill="#880D1E" fill-rule="nonzero">
            <g id="financeIcon">
                <path d="M64.516129,35.483871 C63.6261972,35.483871 62.9032258,34.7608996 62.9032258,33.8709677 L59.6774194,33.8709677 C59.6774194,35.970577 61.030431,37.7449282 62.9032258,38.412771 L62.9032258,40.3225806 L66.1290323,40.3225806 L66.1290323,38.412771 C68.001827,37.7449282 69.3548387,35.970577 69.3548387,33.8709677 C69.3548387,31.2035345 67.1835623,29.0322581 64.516129,29.0322581 C63.6261972,29.0322581 62.9032258,28.3092867 62.9032258,27.4193548 C62.9032258,26.529423 63.6261972,25.8064516 64.516129,25.8064516 C65.4060609,25.8064516 66.1290323,26.529423 66.1290323,27.4193548 L69.3548387,27.4193548 C69.3548387,25.3197456 68.001827,23.5453944 66.1290323,22.8775516 L66.1290323,20.9677419 L62.9032258,20.9677419 L62.9032258,22.8775516 C61.030431,23.5453944 59.6774194,25.3197456 59.6774194,27.4193548 C59.6774194,30.0867881 61.8486958,32.2580645 64.516129,32.2580645 C65.4060609,32.2580645 66.1290323,32.9810359 66.1290323,33.8709677 C66.1290323,34.7608996 65.4060609,35.483871 64.516129,35.483871 Z" id="Path"></path>
                <path d="M64.516129,45.1612903 C72.5207913,45.1612903 79.0322581,38.6498236 79.0322581,30.6451613 C79.0322581,22.640499 72.5207913,16.1290323 64.516129,16.1290323 C56.5114667,16.1290323 50,22.640499 50,30.6451613 C50,38.6498236 56.5114667,45.1612903 64.516129,45.1612903 Z M64.516129,19.3548387 C70.7401399,19.3548387 75.8064516,24.4211504 75.8064516,30.6451613 C75.8064516,36.8691722 70.7401399,41.9354839 64.516129,41.9354839 C58.2921181,41.9354839 53.2258065,36.8691722 53.2258065,30.6451613 C53.2258065,24.4211504 58.2921181,19.3548387 64.516129,19.3548387 Z" id="Shape"></path>
                <path d="M100,9.67741935 L77.4193548,9.67741935 L77.4193548,0 L17.0740927,0 L0,17.0740927 L0,100 L77.4193548,100 L77.4193548,51.6129032 L100,51.6129032 L100,9.67741935 Z M16.1290323,5.50655242 L16.1290323,16.1290323 L5.50655242,16.1290323 L16.1290323,5.50655242 Z M74.1935484,96.7741935 L3.22580645,96.7741935 L3.22580645,19.3548387 L19.3548387,19.3548387 L19.3548387,3.22580645 L74.1935484,3.22580645 L74.1935484,9.67741935 L29.0322581,9.67741935 L29.0322581,22.5806452 L9.67741935,22.5806452 L9.67741935,58.0645161 L67.7419355,58.0645161 L67.7419355,51.6129032 L74.1935484,51.6129032 L74.1935484,96.7741935 Z M64.516129,51.6129032 L64.516129,54.8387097 L12.9032258,54.8387097 L12.9032258,25.8064516 L29.0322581,25.8064516 L29.0322581,51.6129032 L64.516129,51.6129032 Z M96.7741935,48.3870968 L32.2580645,48.3870968 L32.2580645,12.9032258 L96.7741935,12.9032258 L96.7741935,48.3870968 Z" id="Shape"></path>
                <polygon id="Path" points="38.7096774 19.3548387 43.5483871 19.3548387 43.5483871 16.1290323 35.483871 16.1290323 35.483871 24.1935484 38.7096774 24.1935484"></polygon>
                <polygon id="Path" points="43.5483871 41.9354839 38.7096774 41.9354839 38.7096774 37.0967742 35.483871 37.0967742 35.483871 45.1612903 43.5483871 45.1612903"></polygon>
                <polygon id="Path" points="90.3225806 24.1935484 93.5483871 24.1935484 93.5483871 16.1290323 85.483871 16.1290323 85.483871 19.3548387 90.3225806 19.3548387"></polygon>
                <polygon id="Path" points="93.5483871 37.0967742 90.3225806 37.0967742 90.3225806 41.9354839 85.483871 41.9354839 85.483871 45.1612903 93.5483871 45.1612903"></polygon>
                <path d="M14.516129,70.9677419 C15.4060609,70.9677419 16.1290323,71.6907133 16.1290323,72.5806452 L19.3548387,72.5806452 C19.3548387,70.4810359 18.001827,68.7066847 16.1290323,68.0388419 L16.1290323,66.1290323 L12.9032258,66.1290323 L12.9032258,68.0388419 C11.030431,68.7066847 9.67741935,70.4810359 9.67741935,72.5806452 C9.67741935,75.2480784 11.8486958,77.4193548 14.516129,77.4193548 C15.4060609,77.4193548 16.1290323,78.1423262 16.1290323,79.0322581 C16.1290323,79.9221899 15.4060609,80.6451613 14.516129,80.6451613 C13.6261972,80.6451613 12.9032258,79.9221899 12.9032258,79.0322581 L9.67741935,79.0322581 C9.67741935,81.1318673 11.030431,82.9062185 12.9032258,83.5740613 L12.9032258,85.483871 L16.1290323,85.483871 L16.1290323,83.5740613 C18.001827,82.9062185 19.3548387,81.1318673 19.3548387,79.0322581 C19.3548387,76.3648248 17.1835623,74.1935484 14.516129,74.1935484 C13.6261972,74.1935484 12.9032258,73.470577 12.9032258,72.5806452 C12.9032258,71.6907133 13.6261972,70.9677419 14.516129,70.9677419 Z" id="Path"></path>
                <polygon id="Path" points="22.5806452 61.2903226 45.1612903 61.2903226 45.1612903 64.516129 22.5806452 64.516129"></polygon>
                <polygon id="Path" points="48.3870968 61.2903226 67.7419355 61.2903226 67.7419355 64.516129 48.3870968 64.516129"></polygon>
                <polygon id="Path" points="22.5806452 67.7419355 45.1612903 67.7419355 45.1612903 70.9677419 22.5806452 70.9677419"></polygon>
                <polygon id="Path" points="48.3870968 67.7419355 67.7419355 67.7419355 67.7419355 70.9677419 48.3870968 70.9677419"></polygon>
                <polygon id="Path" points="22.5806452 74.1935484 25.8064516 74.1935484 25.8064516 77.4193548 22.5806452 77.4193548"></polygon>
                <polygon id="Path" points="29.0322581 74.1935484 32.2580645 74.1935484 32.2580645 77.4193548 29.0322581 77.4193548"></polygon>
                <polygon id="Path" points="35.483871 74.1935484 38.7096774 74.1935484 38.7096774 77.4193548 35.483871 77.4193548"></polygon>
                <polygon id="Path" points="22.5806452 87.0967742 25.8064516 87.0967742 25.8064516 90.3225806 22.5806452 90.3225806"></polygon>
                <polygon id="Path" points="29.0322581 87.0967742 32.2580645 87.0967742 32.2580645 90.3225806 29.0322581 90.3225806"></polygon>
                <polygon id="Path" points="35.483871 87.0967742 38.7096774 87.0967742 38.7096774 90.3225806 35.483871 90.3225806"></polygon>
                <polygon id="Path" points="41.9354839 87.0967742 67.7419355 87.0967742 67.7419355 90.3225806 41.9354839 90.3225806"></polygon>
                <polygon id="Path" points="41.9354839 74.1935484 67.7419355 74.1935484 67.7419355 77.4193548 41.9354839 77.4193548"></polygon>
                <polygon id="Path" points="22.5806452 80.6451613 67.7419355 80.6451613 67.7419355 83.8709677 22.5806452 83.8709677"></polygon>
            </g>
        </g>
    </g>
</svg>