<?xml version="1.0" encoding="UTF-8"?>
<svg width="80px" height="100px" viewBox="0 0 80 100" version="1.1" xmlns="http://www.w3.org/2000/svg" xmlns:xlink="http://www.w3.org/1999/xlink">
    <!-- Generator: Sketch 53.2 (72643) - https://sketchapp.com -->
    <title>guidelinesIcon</title>
    <desc>Created with Sketch.</desc>
    <g id="Symbols" stroke="none" stroke-width="1" fill="none" fill-rule="evenodd">
        <g id="Icons/Guidelines-Outline" transform="translate(-10.000000, 0.000000)" fill="#880D1E" fill-rule="nonzero">
            <g id="guidelinesIcon" transform="translate(10.000000, 0.000000)">
                <path d="M54.8566667,0 L0.833333333,0 L0.833333333,100 L79.1666667,100 L79.1666667,24.31 L54.8566667,0 Z M55.8333333,5.69 L73.4766667,23.3333333 L55.8333333,23.3333333 L55.8333333,5.69 Z M4.16666667,96.6666667 L4.16666667,3.33333333 L52.5,3.33333333 L52.5,26.6666667 L75.8333333,26.6666667 L75.8333333,96.6666667 L4.16666667,96.6666667 Z" id="Shape"></path>
                <path d="M60.8333333,35 L34.1666667,35 C33.2466667,35 32.5,35.745 32.5,36.6666667 C32.5,37.5883333 33.2466667,38.3333333 34.1666667,38.3333333 L60.8333333,38.3333333 C61.7533333,38.3333333 62.5,37.5883333 62.5,36.6666667 C62.5,35.745 61.7533333,35 60.8333333,35 Z" id="Path"></path>
                <path d="M28.125,30.365 L20.9566667,36.1 L18.6783333,33.8216667 C18.0266667,33.17 16.9733333,33.17 16.3216667,33.8216667 C15.67,34.4733333 15.67,35.5266667 16.3216667,36.1783333 L19.655,39.5116667 C19.9783333,39.835 20.405,40 20.8333333,40 C21.2,40 21.5683333,39.88 21.8733333,39.635 L30.2066667,32.9683333 C30.9266667,32.3916667 31.0416667,31.3433333 30.4666667,30.625 C29.8933333,29.905 28.8433333,29.79 28.125,30.365 Z" id="Path"></path>
                <path d="M60.8333333,53.3333333 L34.1666667,53.3333333 C33.2466667,53.3333333 32.5,54.0783333 32.5,55 C32.5,55.9216667 33.2466667,56.6666667 34.1666667,56.6666667 L60.8333333,56.6666667 C61.7533333,56.6666667 62.5,55.9216667 62.5,55 C62.5,54.0783333 61.7533333,53.3333333 60.8333333,53.3333333 Z" id="Path"></path>
                <path d="M28.125,48.6983333 L20.9566667,54.4333333 L18.6783333,52.155 C18.0266667,51.5033333 16.9733333,51.5033333 16.3216667,52.155 C15.67,52.8066667 15.67,53.86 16.3216667,54.5116667 L19.655,57.845 C19.9783333,58.1683333 20.405,58.3333333 20.8333333,58.3333333 C21.2,58.3333333 21.5683333,58.2133333 21.8733333,57.9683333 L30.2066667,51.3016667 C30.9266667,50.725 31.0416667,49.6766667 30.4666667,48.9583333 C29.8933333,48.2383333 28.8433333,48.1233333 28.125,48.6983333 Z" id="Path"></path>
                <path d="M60.8333333,71.6666667 L34.1666667,71.6666667 C33.2466667,71.6666667 32.5,72.4116667 32.5,73.3333333 C32.5,74.255 33.2466667,75 34.1666667,75 L60.8333333,75 C61.7533333,75 62.5,74.255 62.5,73.3333333 C62.5,72.4116667 61.7533333,71.6666667 60.8333333,71.6666667 Z" id="Path"></path>
                <path d="M28.125,67.0316667 L20.9566667,72.7666667 L18.6783333,70.4883333 C18.0266667,69.8366667 16.9733333,69.8366667 16.3216667,70.4883333 C15.67,71.14 15.67,72.1933333 16.3216667,72.845 L19.655,76.1783333 C19.9783333,76.5016667 20.405,76.6666667 20.8333333,76.6666667 C21.2,76.6666667 21.5683333,76.5466667 21.8733333,76.3016667 L30.2066667,69.635 C30.9266667,69.0583333 31.0416667,68.01 30.4666667,67.2916667 C29.8933333,66.5716667 28.8433333,66.4566667 28.125,67.0316667 Z" id="Path"></path>
            </g>
        </g>
    </g>
</svg>