<?xml version="1.0" encoding="UTF-8"?>
<svg width="100px" height="100px" viewBox="0 0 100 100" version="1.1" xmlns="http://www.w3.org/2000/svg" xmlns:xlink="http://www.w3.org/1999/xlink">
    <!-- Generator: Sketch 53.2 (72643) - https://sketchapp.com -->
    <title>manualIcon</title>
    <desc>Created with Sketch.</desc>
    <g id="Symbols" stroke="none" stroke-width="1" fill="none" fill-rule="evenodd">
        <g id="Icons/Manual-Outline" transform="translate(0.000000, -1.000000)" fill="#880D1E" fill-rule="nonzero">
            <g id="manualIcon" transform="translate(0.000000, 1.000000)">
                <path d="M64.516129,96.7741935 L64.516129,85.2405179 C64.516129,84.5577117 64.6563129,83.8969569 64.9335306,83.2755796 L70.2723349,71.2630734 C70.7322643,70.2258694 70.9677419,69.1225113 70.9677419,67.9852885 L70.9677419,64.516129 L91.9354839,64.516129 L91.9354839,8.06451613 L80.6451613,8.06451613 L80.6451613,0 L62.9032258,0 C57.2919292,0 52.4162046,3.19981734 50,7.86920363 C47.5837954,3.19981734 42.7080708,0 37.0967742,0 L19.3548387,0 L19.3548387,8.06451613 L8.06451613,8.06451613 L8.06451613,64.516129 L29.0322581,64.516129 L29.0322581,67.6836569 C29.0322581,69.0516319 29.3835056,70.4046433 30.046623,71.600145 L36.4887853,83.1936744 C36.8857107,83.9079827 37.0967742,84.7207347 37.0967742,85.5421496 L37.0967742,96.7741935 L5.68434189e-14,96.7741935 L5.68434189e-14,100 L100,100 L100,96.7741935 L64.516129,96.7741935 Z M88.7096774,11.2903226 L88.7096774,61.2903226 L54.8387097,61.2903226 L54.8387097,62.9032258 C54.8387097,65.5706591 52.6674333,67.7419355 50,67.7419355 C49.7983871,67.7419355 49.6030746,67.6923198 49.4030367,67.6663306 C48.5501198,64.0837639 46.7741935,60.788653 44.1807901,58.0645161 L80.6451613,58.0645161 L80.6451613,11.2903226 L88.7096774,11.2903226 Z M22.5806452,3.22580645 L37.0967742,3.22580645 C43.3207851,3.22580645 48.3870968,8.29054315 48.3870968,14.516129 L48.3870968,27.4193548 L51.6129032,27.4193548 L51.6129032,14.516129 C51.6129032,8.29054315 56.6792149,3.22580645 62.9032258,3.22580645 L77.4193548,3.22580645 L77.4193548,54.8387097 L51.6129032,54.8387097 L51.6129032,30.6451613 L48.3870968,30.6451613 L48.3870968,54.8387097 L41.9354839,54.8387097 L41.9354839,46.7741935 C41.9354839,41.4369645 37.5952935,37.0967742 32.2580645,37.0967742 C30.4789881,37.0967742 29.0322581,38.5435042 29.0322581,40.3225806 L29.0322581,54.8387097 L22.5806452,54.8387097 L22.5806452,3.22580645 Z M11.2903226,61.2903226 L11.2903226,11.2903226 L19.3548387,11.2903226 L19.3548387,58.0645161 L29.0322581,58.0645161 L29.0322581,61.2903226 L11.2903226,61.2903226 Z M32.8660534,70.0337073 C32.469128,69.3178238 32.2580645,68.5050718 32.2580645,67.6836569 L32.2580645,40.3225806 C35.8162173,40.3225806 38.7096774,43.2160407 38.7096774,46.7741935 L38.7096774,57.1194556 L41.5448589,59.9546371 C44.9179373,63.3277155 46.7741935,67.8112399 46.7741935,72.5806452 L50,72.5806452 C50,72.0372355 49.9614101,71.500126 49.921245,70.9630165 C49.9480218,70.9630165 49.9740109,70.9677419 50,70.9677419 C53.8952242,70.9677419 57.1533204,68.1916268 57.9014931,64.516129 L67.7419355,64.516129 L67.7419355,67.9852885 C67.7419355,68.6680948 67.6017516,69.3288496 67.3245339,69.9502268 L61.9857296,81.9627331 C61.7132371,82.5754474 61.5454889,83.2180885 61.4320817,83.8709677 L40.1319935,83.8709677 C39.9658204,83.0889302 39.6980532,82.328944 39.3082157,81.6256615 L32.8660534,70.0337073 Z M40.3225806,93.5483871 L54.8387097,93.5483871 L54.8387097,90.3225806 L40.3225806,90.3225806 L40.3225806,87.0967742 L61.2903226,87.0967742 L61.2903226,90.3225806 L58.0645161,90.3225806 L58.0645161,93.5483871 L61.2903226,93.5483871 L61.2903226,96.7741935 L40.3225806,96.7741935 L40.3225806,93.5483871 Z" id="Shape"></path>
                <polygon id="Path" points="62.9032258 41.9354839 66.1290323 41.9354839 66.1290323 45.1612903 62.9032258 45.1612903"></polygon>
                <polygon id="Path" points="69.3548387 41.9354839 72.5806452 41.9354839 72.5806452 45.1612903 69.3548387 45.1612903"></polygon>
                <polygon id="Path" points="56.4516129 41.9354839 59.6774194 41.9354839 59.6774194 45.1612903 56.4516129 45.1612903"></polygon>
                <polygon id="Path" points="54.8387097 48.3870968 74.1935484 48.3870968 74.1935484 51.6129032 54.8387097 51.6129032"></polygon>
                <polygon id="Path" points="54.8387097 35.483871 74.1935484 35.483871 74.1935484 38.7096774 54.8387097 38.7096774"></polygon>
                <polygon id="Path" points="54.8387097 24.1935484 74.1935484 24.1935484 74.1935484 27.4193548 54.8387097 27.4193548"></polygon>
                <polygon id="Path" points="54.8387097 17.7419355 74.1935484 17.7419355 74.1935484 20.9677419 54.8387097 20.9677419"></polygon>
                <polygon id="Path" points="54.8387097 11.2903226 74.1935484 11.2903226 74.1935484 14.516129 54.8387097 14.516129"></polygon>
                <polygon id="Path" points="33.8709677 17.7419355 37.0967742 17.7419355 37.0967742 20.9677419 33.8709677 20.9677419"></polygon>
                <polygon id="Path" points="40.3225806 17.7419355 43.5483871 17.7419355 43.5483871 20.9677419 40.3225806 20.9677419"></polygon>
                <polygon id="Path" points="27.4193548 17.7419355 30.6451613 17.7419355 30.6451613 20.9677419 27.4193548 20.9677419"></polygon>
                <polygon id="Path" points="25.8064516 11.2903226 45.1612903 11.2903226 45.1612903 14.516129 25.8064516 14.516129"></polygon>
                <polygon id="Path" points="25.8064516 24.1935484 45.1612903 24.1935484 45.1612903 27.4193548 25.8064516 27.4193548"></polygon>
                <polygon id="Path" points="25.8064516 30.6451613 45.1612903 30.6451613 45.1612903 33.8709677 25.8064516 33.8709677"></polygon>
            </g>
        </g>
    </g>
</svg>