<?xml version="1.0" encoding="UTF-8"?>
<svg width="47px" height="47px" viewBox="0 0 47 47" version="1.1" xmlns="http://www.w3.org/2000/svg" xmlns:xlink="http://www.w3.org/1999/xlink">
    <!-- Generator: Sketch 52.3 (67297) - http://www.bohemiancoding.com/sketch -->
    <title>nextArrow</title>
    <desc>Created with Sketch.</desc>
    <g id="HomePage" stroke="none" stroke-width="1" fill="none" fill-rule="evenodd">
        <g id="Mobile" transform="translate(-273.000000, -316.000000)">
            <g id="Group" transform="translate(0.000000, 121.000000)">
                <g id="nextArrow" transform="translate(273.000000, 195.000000)">
                    <path d="M23.5,0.746172 C36.066672,0.746172 46.253969,10.933328 46.253969,23.500188 C46.253969,36.066672 36.066672,46.253828 23.5,46.253828 C10.933328,46.253828 0.746031,36.066672 0.746031,23.500188 C0.746031,10.933328 10.933328,0.746172 23.5,0.746172 Z" id="button" fill="#109648"></path>
                    <path d="M33.2969605,22.076799 L27.3028163,15.9470657 C26.9371324,15.5729367 26.3439946,15.5729367 25.9782414,15.9470657 C25.6124881,16.3212118 25.6124881,16.9274469 25.9782414,17.3015758 L30.373571,21.796288 L14.3651419,21.796288 C13.8479532,21.796288 13.4285453,22.2249474 13.4285453,22.754054 C13.4285453,23.2828003 13.8479532,23.71182 14.3651419,23.71182 L30.373571,23.71182 L25.9784495,28.2061548 C25.6126269,28.5803009 25.6126269,29.1868791 25.9784495,29.5606649 C26.1613146,29.7479181 26.4010026,29.8411758 26.640737,29.8411758 C26.8804019,29.8411758 27.12009,29.7479181 27.3030244,29.5606649 L33.2969605,23.4313091 C33.6627831,23.057163 33.6627831,22.4505676 33.2969605,22.076799 Z" id="arrow" fill="#FFFFFF"></path>
                </g>
            </g>
        </g>
    </g>
</svg>