<?xml version="1.0" encoding="UTF-8"?>
<svg width="35px" height="14px" viewBox="0 0 35 14" version="1.1" xmlns="http://www.w3.org/2000/svg" xmlns:xlink="http://www.w3.org/1999/xlink">
    <!-- Generator: Sketch 52.3 (67297) - http://www.bohemiancoding.com/sketch -->
    <title>Links</title>
    <desc>Created with Sketch.</desc>
    <defs>
        <polygon id="path-1" points="0.716984 0.680085 36.566032 0.680085 36.566032 15.640102 0.716984 15.640102"></polygon>
    </defs>
    <g id="HomePage" stroke="none" stroke-width="1" fill="none" fill-rule="evenodd">
        <g id="Tablet" transform="translate(-81.000000, -135.000000)">
            <g id="Header" transform="translate(0.000000, 6.000000)">
                <g id="Tab-3" transform="translate(0.000000, 120.000000)">
                    <rect id="Rectangle" fill="#D8D8D8" fill-rule="nonzero" opacity="0" x="0" y="0" width="768" height="60"></rect>
                    <g id="Links" transform="translate(0.000000, 8.000000)">
                        <text id="Admissions-Departmen" font-family="Heebo-Medium, Heebo" font-size="14" font-weight="400" fill="#181818">
                            <tspan x="19.031424" y="27">Admissions             Departments             Campus Life            Facilities             Academics             Placements             R&amp;D</tspan>
                        </text>
                        <g id="OPEN" transform="translate(80.000000, 0.000000)">
                            <mask id="mask-2" fill="white">
                                <use xlink:href="#path-1"></use>
                            </mask>
                            <use id="Mask" stroke="#109648" fill="#109648" xlink:href="#path-1"></use>
                            <path d="M9.92377728,8.1657754 C9.92377728,8.94652797 9.77769586,9.62566556 9.48552864,10.2032086 C9.19336142,10.7807516 8.78635469,11.2245974 8.26449626,11.5347594 C7.74263782,11.8449213 7.14361213,12 6.4674012,12 C5.78751521,12 5.18573326,11.8449213 4.6620373,11.5347594 C4.13834134,11.2245974 3.73041586,10.7807516 3.43824864,10.2032086 C3.14608142,9.62566556 3,8.94652797 3,8.1657754 L3,7.83957219 C3,7.05881963 3.14516267,6.37879078 3.43549236,5.79946524 C3.72582205,5.22013971 4.13191002,4.77540262 4.65376846,4.46524064 C5.17562689,4.15507866 5.77649009,4 6.45637608,4 C7.13258701,4 7.7334502,4.15507866 8.2589837,4.46524064 C8.78451719,4.77540262 9.19336142,5.22013971 9.48552864,5.79946524 C9.77769586,6.37879078 9.92377728,7.05881963 9.92377728,7.83957219 L9.92377728,8.1657754 Z M8.11014454,7.82887701 C8.11014454,7.05168952 7.96681937,6.45722131 7.68016474,6.04545455 C7.3935101,5.63368778 6.98558463,5.42780749 6.45637608,5.42780749 C5.91981741,5.42780749 5.51097318,5.63279652 5.22983114,6.04278075 C4.94868909,6.45276497 4.80812018,7.04812444 4.80812018,7.82887701 L4.80812018,8.1657754 C4.80812018,8.94296289 4.95144535,9.53921361 5.23809998,9.95454545 C5.52475461,10.3698773 5.93451759,10.5775401 6.4674012,10.5775401 C6.99293469,10.5775401 7.39810391,10.368986 7.68292102,9.95187166 C7.96773812,9.53475727 8.11014454,8.93939781 8.11014454,8.1657754 L8.11014454,7.82887701 Z M15.0991905,4.10695187 C15.7202756,4.10695187 16.2623387,4.21925021 16.7253962,4.44385027 C17.1884537,4.66845032 17.5430916,4.97860765 17.7893206,5.37433155 C18.0355495,5.77005545 18.1586622,6.22103134 18.1586622,6.72727273 C18.1586622,7.22638396 18.0355495,7.66399099 17.7893206,8.04010695 C17.5430916,8.41622291 17.1902912,8.70677259 16.7309088,8.91176471 C16.2715263,9.11675682 15.7276257,9.21925134 15.0991905,9.21925134 L13.7210502,9.21925134 L13.7210502,11.8930481 L11.9294677,11.8930481 L11.9294677,4.10695187 L15.0991905,4.10695187 Z M15.0991905,7.81818182 C15.5218224,7.81818182 15.8360352,7.72103484 16.0418386,7.52673797 C16.2476419,7.3324411 16.350542,7.06952037 16.350542,6.73796791 C16.350542,6.51336786 16.306442,6.30837882 16.2182405,6.12299465 C16.1300391,5.93761048 15.9922264,5.78877061 15.8047984,5.67647059 C15.6173704,5.56417056 15.3821701,5.50802139 15.0991905,5.50802139 L13.7210502,5.50802139 L13.7210502,7.81818182 L15.0991905,7.81818182 Z M21.9393974,5.50802139 L21.9393974,7.21925134 L25.0484821,7.21925134 L25.0484821,8.57219251 L21.9393974,8.57219251 L21.9393974,10.4973262 L25.5997382,10.4973262 L25.5997382,11.8930481 L20.1478149,11.8930481 L20.1478149,4.10695187 L25.5997382,4.10695187 L25.5997382,5.50802139 L21.9393974,5.50802139 Z M32.2139301,11.8930481 L29.1765087,6.96256684 L29.1765087,11.8930481 L27.3849262,11.8930481 L27.3849262,4.10695187 L29.1765087,4.10695187 L32.2139301,9.04278075 L32.2139301,4.10695187 L34,4.10695187 L34,11.8930481 L32.2139301,11.8930481 Z" fill="#FFFFFF" mask="url(#mask-2)"></path>
                        </g>
                    </g>
                </g>
            </g>
        </g>
    </g>
</svg>