<?xml version="1.0" encoding="UTF-8"?>
<svg width="87px" height="100px" viewBox="0 0 87 100" version="1.1" xmlns="http://www.w3.org/2000/svg" xmlns:xlink="http://www.w3.org/1999/xlink">
    <!-- Generator: Sketch 53.2 (72643) - https://sketchapp.com -->
    <title>regulationsIcon</title>
    <desc>Created with Sketch.</desc>
    <g id="Symbols" stroke="none" stroke-width="1" fill="none" fill-rule="evenodd">
        <g id="Icons/Regulations-Outline" transform="translate(-7.000000, 0.000000)" fill="#880D1E" fill-rule="nonzero">
            <g id="regulationsIcon" transform="translate(7.000000, 0.000000)">
                <path d="M78.4375,8.33333333 C78.4375,3.66699208 74.7705079,0 70.1041667,0 L8.4375,0 C3.77115875,0 0.104166667,3.66699208 0.104166667,8.33333333 L0.104166667,21.6666667 L13.4375,21.6666667 L13.4375,91.6666667 C13.4375,96.3330079 17.1044921,100 21.7708333,100 L78.4375,100 C83.1038412,100 86.7708333,96.3330079 86.7708333,91.6666667 L86.7708333,83.3333333 L78.4375,83.3333333 L78.4375,8.33333333 Z M13.4375,18.3333333 L3.4375,18.3333333 L3.4375,8.33333333 C3.4375,5.49967458 5.60384125,3.33333333 8.4375,3.33333333 C11.2711587,3.33333333 13.4375,5.49967458 13.4375,8.33333333 L13.4375,18.3333333 Z M16.7708333,91.6666667 L16.7708333,8.33333333 C16.7708333,6.49983729 16.1043294,4.83317063 15.1041667,3.33333333 L70.1041667,3.33333333 C72.9378254,3.33333333 75.1041667,5.49967458 75.1041667,8.33333333 L75.1041667,83.3333333 L26.7708333,83.3333333 L26.7708333,91.6666667 C26.7708333,94.5003254 24.6044921,96.6666667 21.7708333,96.6666667 C18.9371746,96.6666667 16.7708333,94.5003254 16.7708333,91.6666667 Z M83.4375,86.6666667 L83.4375,91.6666667 C83.4375,94.5003254 81.2711587,96.6666667 78.4375,96.6666667 L28.4375,96.6666667 C29.6044921,95.1668294 30.1041667,93.5001627 30.1041667,91.6666667 L30.1041667,86.6666667 L83.4375,86.6666667 Z" id="Shape"></path>
                <polygon id="Path" points="58.4375 53.3333333 71.7708333 53.3333333 71.7708333 56.6666667 58.4375 56.6666667"></polygon>
                <polygon id="Path" points="20.1041667 53.3333333 55.1041667 53.3333333 55.1041667 56.6666667 20.1041667 56.6666667"></polygon>
                <polygon id="Path" points="38.4375 60 71.7708333 60 71.7708333 63.3333333 38.4375 63.3333333"></polygon>
                <polygon id="Path" points="20.1041667 60 35.1041667 60 35.1041667 63.3333333 20.1041667 63.3333333"></polygon>
                <polygon id="Path" points="50.1041667 73.3333333 71.7708333 73.3333333 71.7708333 76.6666667 50.1041667 76.6666667"></polygon>
                <polygon id="Path" points="20.1041667 73.3333333 46.7708333 73.3333333 46.7708333 76.6666667 20.1041667 76.6666667"></polygon>
                <path d="M43.1038412,33.9998373 L45.1041667,35.3336588 L47.1044921,33.9998373 C53.1038412,30 56.7708333,23.166504 56.7708333,16.0001627 L56.7708333,10.4996746 L45.1041667,6.66666667 L33.4375,10.4996746 L33.4375,16.0001627 C33.4375,23.166504 37.1044921,30 43.1038412,33.9998373 Z M36.7708333,12.8336588 L45.1041667,10 L53.4375,12.8336588 L53.4375,16.0001627 C53.4375,22.1663413 50.4378254,27.8336588 45.270996,31.3330079 L45.1041667,31.3330079 L44.9373373,31.1669921 C39.7705079,27.8336588 36.7708333,22.0003254 36.7708333,15.8333333 L36.7708333,12.8336588 Z" id="Shape"></path>
                <path d="M50.1041667,16.833496 L46.7708333,16.4998373 C46.4371746,19.333496 44.9373373,22.0003254 42.6041667,23.6669921 L44.4376627,26.4998373 C47.6041667,24.1666667 49.7705079,20.666504 50.1041667,16.833496 Z" id="Path"></path>
                <polygon id="Path" points="30.1041667 66.6666667 71.7708333 66.6666667 71.7708333 70 30.1041667 70"></polygon>
                <polygon id="Path" points="20.1041667 66.6666667 26.7708333 66.6666667 26.7708333 70 20.1041667 70"></polygon>
                <polygon id="Path" points="38.4375 46.6666667 71.7708333 46.6666667 71.7708333 50 38.4375 50"></polygon>
                <polygon id="Path" points="20.1041667 46.6666667 35.1041667 46.6666667 35.1041667 50 20.1041667 50"></polygon>
                <polygon id="Path" points="33.4375 38.3333333 56.7708333 38.3333333 56.7708333 41.6666667 33.4375 41.6666667"></polygon>
            </g>
        </g>
    </g>
</svg>