<?xml version="1.0" encoding="UTF-8"?>
<svg width="92px" height="100px" viewBox="0 0 92 100" version="1.1" xmlns="http://www.w3.org/2000/svg" xmlns:xlink="http://www.w3.org/1999/xlink">
    <!-- Generator: Sketch 53.2 (72643) - https://sketchapp.com -->
    <title>studentsIcon</title>
    <desc>Created with Sketch.</desc>
    <g id="Symbols" stroke="none" stroke-width="1" fill="none" fill-rule="evenodd">
        <g id="Icons/Student-Outline" transform="translate(-4.000000, 0.000000)" fill="#880D1E" fill-rule="nonzero">
            <g id="studentsIcon" transform="translate(4.000000, 0.000000)">
                <path d="M45.8288321,0.00145985401 C45.6354015,0.00948905109 45.4448905,0.0481751825 45.2635036,0.116423358 L16.2817518,10.9846715 C15.3405109,11.1970803 14.7273723,12.1058394 14.8824818,13.0583942 L14.8824818,18.5718978 C12.7671533,19.3317518 11.2328467,21.3605839 11.2328467,23.7226277 C11.2328467,26.0850365 12.7671533,28.1138686 14.8824818,28.8733577 L14.8824818,34.6715328 C14.8682482,35.6791971 15.6737226,36.5080292 16.6813869,36.5222628 C17.6890511,36.5364964 18.5178832,35.7310219 18.5321168,34.7233577 C18.5324818,34.7062044 18.5324818,34.6890511 18.5321168,34.6718978 L18.5321168,28.8737226 C20.6478102,28.1142336 22.1817518,26.0854015 22.1817518,23.7229927 C22.1817518,21.3605839 20.6478102,19.3317518 18.5321168,18.5722628 L18.5321168,15.4072993 L25.8313869,18.1445255 L25.8313869,31.0218978 C25.8317518,32.029927 26.6492701,32.8467153 27.6569343,32.8463504 C28.1405109,32.8463504 28.6043796,32.6540146 28.9463504,32.3124088 C30.1259124,31.1328467 33.4346715,30.109854 36.780292,30.109854 C40.1259124,30.109854 43.4346715,31.1328467 44.6142336,32.3124088 C45.3270073,33.0248175 46.4821168,33.0248175 47.1945255,32.3124088 C48.3740876,31.1328467 51.6828467,30.109854 55.0284672,30.109854 C58.3740876,30.109854 61.6828467,31.1328467 62.8624088,32.3124088 C63.5755474,33.0248175 64.7310219,33.0244526 65.4434307,32.3113139 C65.7854015,31.9693431 65.9773723,31.5054745 65.9773723,31.0218978 L65.9773723,18.1441606 L75.7423358,14.4824818 C76.6861314,14.1284672 77.1638686,13.0762774 76.8094891,12.1324818 C76.6244526,11.6394161 76.2354015,11.250365 75.7423358,11.0653285 L46.5452555,0.116423358 C46.3164234,0.0306569343 46.0729927,-0.00839416058 45.8288321,0.00145985401 Z M45.9043796,3.77372263 L69.9043796,12.7737226 L45.9043796,21.7729927 L21.9043796,12.7737226 L45.9043796,3.77372263 Z M45.9043796,10.9489051 C44.8967153,10.9489051 44.079562,11.7660584 44.079562,12.7737226 C44.079562,13.7813869 44.8967153,14.5985401 45.9043796,14.5985401 C46.9120438,14.5985401 47.7291971,13.7813869 47.7291971,12.7737226 C47.7291971,11.7660584 46.9120438,10.9489051 45.9043796,10.9489051 Z M29.4810219,19.5127737 L45.2635036,25.4313869 C45.6766423,25.5864964 46.1321168,25.5864964 46.5452555,25.4313869 L62.3277372,19.5127737 L62.3277372,27.7791971 C60.1518248,26.8594891 57.6036496,26.459854 55.0284672,26.459854 C51.699635,26.459854 48.3558394,27.0416058 45.9043796,28.6952555 C43.4529197,27.0416058 40.1091241,26.459854 36.780292,26.459854 C34.2054745,26.459854 31.6569343,26.859854 29.4810219,27.7791971 L29.4810219,19.5127737 L29.4810219,19.5127737 Z M16.7072993,21.8978102 C17.7368613,21.8978102 18.5321168,22.6930657 18.5321168,23.7226277 C18.5321168,24.7521898 17.7368613,25.5474453 16.7072993,25.5474453 C15.6777372,25.5474453 14.8824818,24.7521898 14.8824818,23.7226277 C14.8824818,22.6934307 15.6777372,21.8978102 16.7072993,21.8978102 Z M63.5532847,34.5540146 C62.5463504,34.6018248 61.7693431,35.4569343 61.8171533,36.4638686 C61.820073,36.5240876 61.8259124,36.5843066 61.8346715,36.6441606 C62.7244526,43.3259124 59.8459854,49.9251825 54.5525547,53.5237226 C49.2591241,57.1226277 42.5554745,57.1233577 37.2609489,53.5273723 C31.9664234,49.930292 29.0864964,43.3321168 29.9744526,36.65 C30.1029197,35.650365 29.3967153,34.7357664 28.3970803,34.6069343 C27.4032847,34.4791971 26.4919708,35.1766423 26.3562044,36.1693431 C25.2912409,44.1806569 28.7160584,52.1339416 35.210219,56.5459854 C35.9474453,57.0467153 36.710219,57.4883212 37.4912409,57.8755474 C38.3605839,60.9109489 37.4649635,62.9175182 35.2978102,64.6937956 C32.959854,66.609854 28.8788321,67.9259124 24.1094891,68.1368613 C18.7010949,68.3759124 14.5405109,70.2193431 11.769708,73.0430657 C8.99890511,75.8667883 7.66715328,79.5934307 7.58321168,83.3583942 C7.58321168,83.3718978 7.58321168,83.3854015 7.58321168,83.3989051 L7.58321168,96.1726277 L2.10875912,96.1726277 C1.10109489,96.1583942 0.272262774,96.9638686 0.258029197,97.9715328 C0.24379562,98.9791971 1.04927007,99.8080292 2.05693431,99.8222628 C2.07408759,99.8226277 2.09124088,99.8226277 2.10839416,99.8222628 L53.8824818,99.8222628 L53.9138686,99.8379562 L53.9215328,99.8222628 L61.1817518,99.8222628 L61.2131387,99.8379562 L61.2208029,99.8222628 L89.6992701,99.8222628 C90.7069343,99.8364964 91.5357664,99.0310219 91.55,98.0233577 C91.5642336,97.0156934 90.7587591,96.1868613 89.7510949,96.1726277 C89.7339416,96.1722628 89.7167883,96.1722628 89.699635,96.1726277 L84.2251825,96.1726277 L84.2251825,83.3989051 C84.2251825,83.3854015 84.2251825,83.3718978 84.2251825,83.3583942 C84.1412409,79.5934307 82.810219,75.8671533 80.0394161,73.0430657 C77.2686131,70.2189781 73.1080292,68.3759124 67.699635,68.1368613 C62.930292,67.9259124 58.8492701,66.610219 56.5113139,64.6937956 C54.3441606,62.9175182 53.4489051,60.9109489 54.3186131,57.8748175 C55.1010949,57.4868613 55.8653285,57.0445255 56.6040146,56.5427007 C63.0967153,52.1288321 66.5189781,44.1740876 65.4521898,36.1631387 C65.3394161,35.2116788 64.510219,34.5094891 63.5532847,34.5551095 L63.5532847,34.5540146 Z M41.3686131,59.2974453 C44.3492701,60.0350365 47.4594891,60.0357664 50.439781,59.2974453 C50.3087591,62.5879562 51.7543796,65.5135036 54.1970803,67.5156934 C56.7186131,69.5824818 60.1448905,70.8616788 64.029562,71.4448905 L51.6664234,96.1718978 L47.6441606,96.1718978 C47.4065693,95.410219 46.7018248,94.8912409 45.9040146,94.890146 C45.1058394,94.8905109 44.400365,95.4094891 44.1627737,96.1718978 L11.2328467,96.1718978 L11.2328467,83.4317518 C11.3007299,80.4645985 12.3160584,77.6963504 14.3748175,75.5978102 C16.4354015,73.4974453 19.590146,71.9890511 24.270073,71.7821168 C29.5890511,71.5470803 34.3532847,70.1861314 37.6113139,67.5156934 C40.0540146,65.5135036 41.5,62.5875912 41.3686131,59.2967153 L41.3686131,59.2974453 Z M67.929927,71.8072993 C69.0178832,71.8737226 70.0226277,72.0105839 70.9467153,72.2113139 L58.9664234,96.1718978 L55.7474453,96.1718978 L67.929927,71.8072993 Z M45.9043796,72.9927007 C44.8967153,72.9927007 44.079562,73.809854 44.079562,74.8175182 C44.079562,75.8251825 44.8967153,76.6423358 45.9043796,76.6423358 C46.9120438,76.6423358 47.7291971,75.8251825 47.7291971,74.8175182 C47.7291971,73.809854 46.9120438,72.9927007 45.9043796,72.9927007 Z M74.4229927,73.4189781 C75.6167883,74.0226277 76.6138686,74.7620438 77.4339416,75.5981752 C79.4945255,77.6985401 80.509854,80.4689781 80.5759124,83.4390511 L80.5759124,96.1722628 L63.0463504,96.1722628 L74.4229927,73.4189781 Z M45.9043796,80.2919708 C44.8967153,80.2919708 44.079562,81.1091241 44.079562,82.1167883 C44.079562,83.1244526 44.8967153,83.9416058 45.9043796,83.9416058 C46.9120438,83.9416058 47.7291971,83.1244526 47.7291971,82.1167883 C47.7291971,81.1091241 46.9120438,80.2919708 45.9043796,80.2919708 Z M45.9043796,87.5912409 C44.8967153,87.5912409 44.079562,88.4083942 44.079562,89.4160584 L44.079562,89.4160584 C44.079562,90.4237226 44.8967153,91.2408759 45.9043796,91.2408759 C46.9120438,91.2408759 47.7291971,90.4237226 47.7291971,89.4160584 C47.7291971,88.4083942 46.9120438,87.5912409 45.9043796,87.5912409 L45.9043796,87.5912409 Z" id="Shape"></path>
            </g>
        </g>
    </g>
</svg>