<?xml version="1.0" encoding="UTF-8"?>
<svg width="47px" height="47px" viewBox="0 0 47 47" version="1.1" xmlns="http://www.w3.org/2000/svg" xmlns:xlink="http://www.w3.org/1999/xlink">
    <!-- Generator: Sketch 52.3 (67297) - http://www.bohemiancoding.com/sketch -->
    <title>previousArrow</title>
    <desc>Created with Sketch.</desc>
    <g id="HomePage" stroke="none" stroke-width="1" fill="none" fill-rule="evenodd">
        <g id="Mobile" transform="translate(0.000000, -316.000000)">
            <g id="Group" transform="translate(0.000000, 121.000000)">
                <g id="previousArrow" transform="translate(0.000000, 195.000000)">
                    <path d="M23.5,0.746172 C36.066672,0.746172 46.253969,10.933328 46.253969,23.500188 C46.253969,36.066672 36.066672,46.253828 23.5,46.253828 C10.933281,46.253828 0.745984,36.066672 0.745984,23.500188 C0.745984,10.933328 10.933281,0.746172 23.5,0.746172 Z" id="button" fill="#109648"></path>
                    <path d="M13.7030164,22.076799 L19.6971606,15.9470657 C20.0628445,15.5729367 20.6559823,15.5729367 21.0217355,15.9470657 C21.3874888,16.3212118 21.3874888,16.9274469 21.0217355,17.3015758 L16.626429,21.796288 L32.6348581,21.796288 C33.1520931,21.796288 33.5714547,22.2249474 33.5714547,22.754054 C33.5714547,23.2828003 33.1520931,23.71182 32.6348581,23.71182 L16.626429,23.71182 L21.0215505,28.2061548 C21.3873731,28.5803009 21.3873731,29.1868791 21.0215505,29.5606649 C20.8386623,29.7479181 20.5989974,29.8411758 20.3593324,29.8411758 C20.119575,29.8411758 19.87991,29.7479181 19.697045,29.5606649 L13.7030164,23.4313091 C13.3372169,23.057163 13.3372169,22.4505676 13.7030164,22.076799 Z" id="arrow" fill="#FFFFFF"></path>
                </g>
            </g>
        </g>
    </g>
</svg>